<?xml version="1.0" standalone="no"?>
<svg viewBox="0 0 200 200" xmlns="http://www.w3.org/2000/svg">
  <path fill="#8CD9E8" d="M41.4,-59.9C56.3,-54.9,72.8,-47.8,76.5,-36C80.2,-24.2,71.1,-7.6,66.2,7.7C61.2,23.1,60.3,37.3,54,49.8C47.8,62.3,36.3,73.3,22.3,78.6C8.3,83.9,-8.1,83.6,-19.2,75.7C-30.4,67.8,-36.4,52.3,-41.1,39.6C-45.8,27,-49.2,17.3,-52.2,6.6C-55.3,-4.2,-57.9,-15.9,-56.7,-28.8C-55.4,-41.8,-50.2,-55.8,-40.1,-63C-30,-70.3,-15,-70.6,-0.9,-69.2C13.3,-67.9,26.5,-64.9,41.4,-59.9Z" transform="translate(100 100)" />
</svg>
