<?xml version="1.0" standalone="no"?>
<svg viewBox="0 0 200 200" xmlns="http://www.w3.org/2000/svg">
  <path fill="#8CD9E8" d="M37.5,-63.5C47.9,-51.7,55,-40,58.9,-28C62.7,-15.9,63.3,-3.3,64.2,11.1C65.1,25.6,66.3,42,59.1,52.5C52,63,36.6,67.5,21.8,70C7,72.4,-7.2,72.7,-19.3,68.1C-31.4,63.5,-41.4,54,-50.8,43.7C-60.2,33.4,-69.1,22.3,-71.7,9.8C-74.4,-2.8,-70.9,-16.8,-63.1,-26.7C-55.3,-36.7,-43.2,-42.5,-32,-54C-20.7,-65.5,-10.4,-82.5,1.6,-85C13.6,-87.5,27.1,-75.4,37.5,-63.5Z" transform="translate(100 100)" />
</svg>
