<?xml version="1.0" standalone="no"?>
<svg viewBox="0 0 200 200" xmlns="http://www.w3.org/2000/svg">
  <path fill="#8CD9E8" d="M37.6,-58.7C47.1,-52.3,52.2,-39.3,58.5,-26.5C64.7,-13.6,72.1,-1.1,70.5,10.1C68.8,21.4,58.2,31.3,48,39.6C37.7,47.8,27.8,54.4,16.3,59.6C4.9,64.8,-8.2,68.6,-20.3,66.3C-32.4,64,-43.5,55.7,-50.4,45.1C-57.2,34.6,-59.7,21.8,-65.7,7C-71.6,-7.8,-80.9,-24.5,-77.8,-37.3C-74.7,-50.2,-59.3,-59.2,-44.2,-63.1C-29.2,-66.9,-14.6,-65.7,-0.3,-65.2C14,-64.7,28,-65.1,37.6,-58.7Z" transform="translate(100 100)" />
</svg>
